<?xml version="1.0" encoding="utf-8"?>
<!-- Generator: Adobe Illustrator 24.3.0, SVG Export Plug-In . SVG Version: 6.00 Build 0)  -->
<svg version="1.1" id="Layer_1" xmlns="http://www.w3.org/2000/svg" xmlns:xlink="http://www.w3.org/1999/xlink" x="0px" y="0px"
	 viewBox="0 0 48 48" style="enable-background:new 0 0 48 48;" xml:space="preserve">
<style type="text/css">
	.st0{fill:none;stroke:#000000;stroke-miterlimit:10;}
	.st1{fill:none;stroke:#000000;stroke-width:0.25;stroke-miterlimit:10;}
	.st2{fill:#BE1E2D;stroke:#BE1E2D;stroke-width:0.25;stroke-miterlimit:10;}
	.st3{fill:#262262;stroke:#262262;stroke-width:0.25;stroke-miterlimit:10;}
	.st4{fill:#FFFFFF;}
</style>
<g>
	
		<text transform="matrix(1 0 0 1 -40.647 27.0496)" style="stroke:#000000;stroke-width:0.25;stroke-miterlimit:10; font-family:'LucidaConsole'; font-size:8.0145px;">OTE</text>
	<path class="st0" d="M-42.2,22.8"/>
	<path class="st0" d="M-44.4,18.7"/>
	<path class="st1" d="M-46.4,24.6"/>
	<path class="st1" d="M-40.9,15.9"/>
	<polygon class="st2" points="-41.1,15.6 -46.5,24.3 -48.8,20.5 -50.2,22 -46.8,26.9 -39.2,17.1 	"/>
	<polygon class="st3" points="-43.5,17.9 -53.2,17.9 -53.2,29.4 -41.9,29.4 -41.9,22.2 -43.5,24.2 -43.5,27.8 -51.5,27.8 
		-51.5,19.5 -44.5,19.5 	"/>
	
		<text transform="matrix(1.2541 -0.2744 0.2138 0.9769 -59.2812 27.97)" style="fill:#FFCE16; font-family:'BrushScriptMT'; font-size:14.6932px;">e</text>
</g>
<rect x="-90.4" y="-6.1" class="st4" width="0" height="0.1"/>
<g>
	<path class="st0" d="M33.7,24.7"/>
	<path class="st0" d="M28.4,14.8"/>
	<path class="st1" d="M23.6,29"/>
	<path class="st1" d="M36.8,8.1"/>
	<polygon class="st2" points="36.4,7.4 23.2,28.3 17.8,19.2 14.3,22.9 22.6,34.7 40.9,10.9 	"/>
	<polygon class="st3" points="30.5,13 7.1,13 7.1,40.6 34.4,40.6 34.4,23.1 30.6,28.1 30.6,36.7 11.2,36.7 11.2,16.6 28.1,16.6 	"/>
</g>
</svg>
